<svg width="1295" height="237" viewBox="0 0 1295 237" fill="none" xmlns="http://www.w3.org/2000/svg">
<path d="M171.408 233.39C156.905 233.39 142.402 233.39 127.904 233.39C127.133 233.39 126.356 233.417 125.595 233.209C123.794 232.708 122.804 231.51 122.782 229.636C122.749 226.844 122.743 224.047 122.782 221.255C122.809 219.013 124.199 217.6 126.47 217.49C127.746 217.43 129.026 217.474 130.301 217.468C140.891 217.402 148.197 207.356 145.04 197.221C140.207 181.712 135.386 166.197 130.564 150.682C129.743 148.038 128.873 147.384 126.12 147.384C107.469 147.384 88.8176 147.384 70.1663 147.384C67.5394 147.384 66.702 147.972 65.8538 150.489C60.9447 165.064 56.0082 179.629 51.1538 194.22C47.3064 205.773 55.6908 217.408 67.8349 217.468C69.2961 217.474 70.7519 217.435 72.2131 217.485C74.7033 217.562 76.066 218.974 76.0824 221.486C76.1043 224.096 76.1043 226.707 76.0824 229.317C76.066 231.851 74.7854 233.198 72.2515 233.379C71.7534 233.417 71.2499 233.401 70.7464 233.401C49.1781 233.401 27.6044 233.401 6.03609 233.401C5.35199 233.401 4.66242 233.406 3.98926 233.313C2.09568 233.044 0.94639 232.06 0.71106 230.164C0.311545 226.982 0.338909 223.761 0.689168 220.579C0.913553 218.54 2.30364 217.518 4.55296 217.485C8.77796 217.419 12.6253 216.177 16.106 213.791C19.74 211.296 22.449 208.021 24.0799 203.91C35.1787 175.919 46.2557 147.917 57.3436 119.926C66.0234 98.0195 74.7142 76.1127 83.3941 54.2004C87.3071 44.3297 91.1819 34.448 95.1113 24.5828C97.5084 18.5647 101.482 13.8657 107.004 10.4802C111.869 7.49589 116.707 4.47312 121.567 1.48333C124.987 -0.621612 127.685 -0.489709 130.942 1.90102C131.237 2.11537 131.511 2.36818 131.823 2.55504C134.778 4.30825 135.988 7.00126 136.513 10.3373C138.73 24.3959 141.066 38.4325 143.425 52.4692C144.427 58.4158 146.671 63.9996 148.723 69.633C154.508 85.5437 160.298 101.454 166.083 117.365C174.341 140.069 182.599 162.778 190.858 185.482C193.014 191.418 195.181 197.348 197.321 203.289C200.419 211.884 207.468 217.1 216.547 217.479C219.015 217.584 220.214 218.798 220.241 221.282C220.269 223.937 220.263 226.597 220.241 229.252C220.219 231.752 218.758 233.264 216.274 233.395C215.776 233.423 215.272 233.406 214.769 233.406C200.32 233.39 185.861 233.39 171.408 233.39ZM97.9736 130.847C105.225 130.847 112.477 130.858 119.728 130.841C123.417 130.83 124.872 128.786 123.69 125.285C116.97 105.384 110.244 85.4833 103.512 65.5825C103.145 64.4998 102.823 63.3896 102.33 62.3673C101.712 61.0593 100.573 60.3503 99.1338 60.4053C97.7054 60.4603 96.6273 61.1802 96.0581 62.5487C95.8447 63.0543 95.6477 63.571 95.4561 64.0821C90.6236 76.8327 85.7966 89.5887 80.9641 102.339C78.0143 110.127 75.0481 117.909 72.1037 125.703C71.1076 128.346 72.5853 130.632 75.4038 130.83C75.858 130.863 76.3177 130.847 76.772 130.847C83.8374 130.852 90.9082 130.847 97.9736 130.847Z" fill="#3A78FC"/>
<path d="M242.347 233.412H301.307C304.512 233.412 307.11 230.813 307.11 227.608V218.361C307.11 217.679 306.558 217.127 305.877 217.127C299.063 217.127 293.54 211.604 293.54 204.79V140.775C293.54 127.482 304.316 116.706 317.609 116.706C330.649 116.706 341.317 127.09 341.669 140.125L343.35 202.292C343.569 210.42 337.041 217.127 328.91 217.127C328.113 217.127 327.466 217.774 327.466 218.571V227.608C327.466 230.813 330.064 233.412 333.269 233.412H390.872C394.077 233.412 396.675 230.813 396.675 227.608V222.93C396.675 219.725 394.077 217.127 390.872 217.127H388.908C385.703 217.127 383.105 214.537 383.105 211.332V141.133C383.105 116.706 368.177 98.2501 345.107 93.6361C325.517 89.718 306.295 102.076 296.411 111.175C295.343 112.158 293.54 111.417 293.54 109.965V107.382C293.54 99.0411 286.778 92.2791 278.437 92.2791C274.087 92.2791 269.793 93.2632 265.878 95.1579L239.82 107.767C237.817 108.736 236.544 110.765 236.544 112.991V117.341C236.544 118.672 237.073 119.949 238.014 120.89C248.369 131.244 254.186 145.288 254.186 159.931V211.324C254.186 214.529 251.587 217.127 248.382 217.127H242.347C239.142 217.127 236.544 219.725 236.544 222.93V227.608C236.544 230.813 239.142 233.412 242.347 233.412Z" fill="#3A78FC"/>
<path d="M1130.68 127.639H1127.67C1124.46 127.639 1122.02 125.02 1121.51 121.855C1120.97 118.479 1119.64 114.119 1116.43 109.998C1106.94 97.7843 1079.79 96.4273 1073.01 116.783C1066.22 137.139 1102.86 143.924 1125.93 161.565C1144.39 175.679 1139.5 200.92 1132.72 211.776C1125.93 222.632 1108.29 233.489 1085.22 233.489C1055.73 233.489 1040.44 221.275 1040.44 206.348V197.224C1040.44 194.019 1043.04 191.42 1046.24 191.42H1046.85C1050.06 191.42 1052.6 194.033 1053.03 197.209C1054.69 209.372 1061.49 214.837 1066.22 217.204C1069.46 218.821 1101.51 225.346 1102.86 202.277C1104.22 179.207 1079.79 181.921 1056.72 161.565C1030.51 138.435 1040.44 114.974 1049.94 104.57C1054.9 99.1414 1069.21 90.7277 1092.01 89.6421C1102.34 89.1503 1111.01 91.0536 1117.83 93.7876C1129.63 98.5169 1134.08 111.531 1134.08 124.243C1134.08 126.119 1132.56 127.639 1130.68 127.639Z" fill="#3A78FC"/>
<path d="M503.726 127.639H500.713C497.508 127.639 495.069 125.02 494.56 121.855C494.017 118.479 492.687 114.119 489.481 109.998C479.982 97.7843 452.841 96.4273 446.056 116.783C439.27 137.139 475.91 143.924 498.98 161.565C517.436 175.679 512.551 200.92 505.765 211.776C498.98 222.632 481.339 233.489 458.269 233.489C428.777 233.489 413.486 221.275 413.486 206.348V197.224C413.486 194.019 416.085 191.42 419.29 191.42H419.896C423.102 191.42 425.643 194.033 426.076 197.209C427.737 209.372 434.536 214.837 439.27 217.204C442.503 218.821 474.553 225.346 475.91 202.277C477.268 179.207 452.841 181.921 429.771 161.565C403.556 138.435 413.486 114.974 422.986 104.57C427.942 99.1414 442.256 90.7277 465.054 89.6421C475.382 89.1503 484.058 91.0536 490.879 93.7876C502.679 98.5169 507.122 111.531 507.122 124.243C507.122 126.119 505.602 127.639 503.726 127.639Z" fill="#3A78FC"/>
<path d="M522.452 93.8158V104.313C522.452 105.161 523.14 105.85 523.989 105.85H525.392C530.213 105.85 534.589 108.667 536.584 113.056L589.557 229.598C593.99 239.349 607.905 239.162 612.074 229.295L641.192 160.384C641.452 159.768 642.32 159.755 642.598 160.363L673.284 227.487C677.79 237.346 691.923 236.971 695.901 226.888L740.58 113.632C742.432 108.936 746.968 105.85 752.016 105.85H754.327C755.175 105.85 755.863 105.161 755.863 104.313V93.8158C755.863 92.9671 755.175 92.2791 754.327 92.2791H703.118C702.27 92.2791 701.582 92.9671 701.582 93.8158V104.313C701.582 105.161 702.27 105.85 703.118 105.85H719.722C724.049 105.85 727.022 110.202 725.448 114.233L695.527 190.831C695.27 191.487 694.339 191.481 694.092 190.821L665.342 114.155C663.835 110.136 666.806 105.85 671.098 105.85H681.046C681.895 105.85 682.583 105.161 682.583 104.313V93.8158C682.583 92.9671 681.895 92.2791 681.046 92.2791H613.554C612.705 92.2791 612.017 92.9671 612.017 93.8158V104.734C612.017 105.35 612.516 105.85 613.132 105.85C617.426 105.85 621.338 108.315 623.191 112.189L632.455 131.559C634.131 135.064 634.256 139.114 632.798 142.715L612.72 192.32C612.462 192.957 611.562 192.961 611.298 192.327L578.91 114.355C577.228 110.306 580.203 105.85 584.586 105.85H592.839C593.687 105.85 594.375 105.161 594.375 104.313V93.8158C594.375 92.9671 593.687 92.2791 592.839 92.2791H523.989C523.14 92.2791 522.452 92.9671 522.452 93.8158Z" fill="#3A78FC"/>
<path fill-rule="evenodd" clip-rule="evenodd" d="M832.286 233.411C792.564 233.411 760.363 201.21 760.363 161.488C760.363 121.766 792.564 89.5645 832.286 89.5645C865.982 89.5645 894.266 112.737 902.072 144.016C902.932 147.461 900.198 150.631 896.647 150.631H807.282C804.254 150.631 801.708 152.963 801.824 155.989C802.51 173.892 813.001 201.103 848.57 203.556C859.274 204.294 873.234 198.44 880.761 192.201C883.476 189.95 887.702 189.201 890.49 191.362L891.842 192.409C894.082 194.144 894.763 197.257 893.257 199.656C880.538 219.931 857.986 233.411 832.286 233.411ZM858.069 122.133C858.069 132.626 849.926 139.925 839.07 141.132C836.356 141.433 802.43 144.524 806.501 134.347C814.643 113.991 828.577 103.135 839.07 103.135C849.563 103.135 858.069 111.641 858.069 122.133Z" fill="#3A78FC"/>
<path d="M996.489 227.608V222.93C996.489 219.725 993.891 217.127 990.686 217.127H987.024C977.306 217.127 969.469 209.17 969.616 199.453L970.187 161.745C970.456 143.994 986.804 130.864 1004.2 134.432C1014.23 136.491 1023.63 128.824 1023.63 118.579V96.2301C1023.63 94.048 1021.86 92.2791 1019.68 92.2791C1007.5 92.2791 995.873 97.3922 987.641 106.373L973.752 121.525C972.671 122.704 970.705 121.939 970.705 120.34V103.042C970.705 97.0979 965.887 92.2791 959.942 92.2791C958.089 92.2791 956.254 92.6438 954.541 93.3525L921.365 107.08C919.196 107.978 917.781 110.095 917.781 112.443V118.233C917.781 119.834 918.535 121.343 919.816 122.304C928.786 129.031 934.065 139.589 934.065 150.802V204.914C934.065 211.659 928.597 217.127 921.852 217.127C919.603 217.127 917.781 218.95 917.781 221.198V227.608C917.781 230.813 920.379 233.412 923.584 233.412H990.686C993.891 233.412 996.489 230.813 996.489 227.608Z" fill="#3A78FC"/>
<rect x="1167.92" y="129.499" width="126.663" height="21.1104" rx="1" fill="#FF6F4B"/>
<rect x="1220.27" y="203.761" width="126.663" height="21.1104" rx="1" transform="rotate(-90 1220.27 203.761)" fill="#FF6F4B"/>
</svg>
