<svg width="122" height="24" viewBox="0 0 122 24" fill="none" xmlns="http://www.w3.org/2000/svg">
<mask id="mask0" mask-type="alpha" maskUnits="userSpaceOnUse" x="0" y="0" width="23" height="24">
<path fill-rule="evenodd" clip-rule="evenodd" d="M0 0.066925H22.0563V23.6454H0V0.066925Z" fill="white"/>
</mask>
<g mask="url(#mask0)">
<path fill-rule="evenodd" clip-rule="evenodd" d="M12.1598 13.4098C12.096 13.4741 11.9367 13.5062 11.7462 13.5062C10.9184 13.5383 9.04034 13.5062 7.64028 13.5062C7.4491 13.5062 7.32164 13.5383 7.22671 13.442C7.16298 13.3456 7.19484 13.1857 7.28977 12.9288C7.64028 11.9023 8.78542 8.82303 9.58137 6.51323C9.6451 6.28841 9.80376 6.03213 9.93122 6.03213C10.1536 6.03213 10.1224 6.35264 10.2492 6.57747C10.8858 8.88727 11.5225 10.7795 12.1272 12.7688C12.1903 13.0251 12.2222 13.282 12.1598 13.4098ZM18.364 17.3577C16.9321 13.7645 15.0541 8.27903 14.4174 6.16194C13.972 4.78288 13.5259 2.31249 13.3672 0.644376L12.4126 0.066925C11.4255 0.515235 10.8214 0.900648 10.0891 1.38175C9.42066 1.86351 9.29386 2.40884 8.94335 3.33892C8.24299 5.19974 5.53848 13.8608 3.18315 19.0258C2.2916 21.0151 1.62311 21.8809 0 22.2978L0.159323 23.6454C1.40005 23.5169 3.02316 23.3884 3.81911 23.3884C4.83745 23.3884 5.56901 23.549 6.4287 23.549C6.84227 23.549 7.06533 23.5169 7.5745 23.3884L7.60636 22.0729C7.19278 22.0408 6.81107 22.0087 6.49243 21.9445C5.21983 21.7518 4.96491 21.3991 4.96491 20.6611C4.96491 19.8916 5.56968 17.9344 6.33377 15.7852C6.46122 15.3042 6.65241 15.0793 7.63889 15.0793C9.13454 15.0793 10.8851 14.9187 11.9353 14.9187C12.3495 14.9187 12.6357 14.9508 12.795 15.0472C12.795 15.0472 12.9543 15.3356 13.0492 15.4962C13.654 17.4527 14.5137 20.0509 14.5137 20.8853C14.5137 21.6554 13.8771 21.9117 12.795 22.0723C12.5719 22.1365 12.3489 22.1686 12.1584 22.1686L12.2852 23.5477C13.431 23.4192 15.8182 23.3871 16.964 23.3871C18.9376 23.3871 20.2102 23.5798 21.0698 23.5798C21.4522 23.5798 21.6746 23.5156 22.0563 23.3884V22.0415C21.7377 22.0415 21.4516 21.9451 21.2604 21.8809C20.1464 21.5604 19.8603 21.1107 18.364 17.3577Z" fill="white"/>
</g>
<path fill-rule="evenodd" clip-rule="evenodd" d="M37.9706 14.8538C37.9706 12.6725 37.5564 11.3891 36.5381 10.4269C35.774 9.72099 34.7238 9.2399 33.6417 9.2399C32.1772 9.2399 31.2226 9.75311 29.5039 11.0044C29.249 11.1971 29.0897 11.3255 28.8673 11.3255C28.708 11.3255 28.6761 11.1328 28.6761 10.7481C28.6761 9.7859 28.1669 9.17633 27.2761 9.17633C25.9391 9.17633 24.1248 10.4918 23.2339 11.1335V11.8394C23.4881 12.1599 23.9661 12.6089 24.316 12.9622C24.6339 13.4433 24.7933 13.7959 24.857 14.3734C24.8889 15.2392 24.9526 16.7146 24.9526 18.1265C24.9526 19.0566 24.9207 21.3985 24.8251 21.9759L23.2339 22.3286C23.2339 22.7775 23.2976 23.2272 23.52 23.5798C24.4753 23.4513 25.2068 23.3871 25.8435 23.3871C26.4801 23.3871 28.1032 23.5477 28.6761 23.5477C29.3127 23.5477 29.7263 23.4841 30.3629 23.2272L30.3311 22.0723C30.045 22.0402 29.6307 22.0723 29.4083 21.9438C28.8354 21.8153 28.8036 21.8153 28.8036 17.3242C28.8036 15.4955 28.7717 13.4748 29.0578 12.9294C29.3446 12.3841 30.6491 11.9672 31.3176 11.9672C32.304 11.9672 33.0681 12.4804 33.4498 13.1221C33.7685 13.9237 33.959 14.5333 33.959 16.811C33.959 18.2864 33.9271 19.7946 33.8322 20.6604C33.7366 21.527 33.5136 21.8796 33.1319 22.008C32.782 22.1037 32.559 22.2001 32.241 22.2643C32.1454 22.8739 32.2091 23.163 32.4634 23.5798C33.3542 23.4513 34.3726 23.3871 35.0729 23.3871C35.837 23.3871 37.0778 23.5477 37.7144 23.5477C38.351 23.5477 38.8602 23.4192 39.307 23.1623V22.0716L37.9388 21.8789C37.7795 20.4999 37.9706 16.9067 37.9706 14.8538Z" fill="white"/>
<path fill-rule="evenodd" clip-rule="evenodd" d="M49.3935 15.6554C48.6294 15.1422 47.7385 14.5647 46.5608 13.9873C45.575 13.4734 44.8428 12.8645 44.8428 12.0622C44.8428 11.1 45.8293 10.4262 47.0069 10.4262C48.5344 10.4262 49.3616 11.1 49.6165 12.7681C49.6484 12.9287 50.826 12.9929 51.0166 12.8324C51.0166 12.4476 51.1122 12.1271 51.1122 11.4854C51.1122 10.7153 50.7942 10.2021 49.9664 9.75307C49.0436 9.30409 47.9615 9.04715 46.6564 9.04715C43.6014 9.04715 41.5647 10.6189 41.5647 13.1535C41.5647 14.5326 42.2963 15.5911 43.3465 16.3292C44.1106 16.9709 44.9065 17.452 45.7974 17.8688C47.1025 18.639 48.089 19.2807 48.089 20.275C48.089 21.462 46.9432 22.2 45.7018 22.2C44.1424 22.2 42.9648 21.2378 42.8373 19.5376C42.1057 19.3449 41.8508 19.5055 41.5328 19.5055C41.4691 20.0187 41.4691 20.3399 41.4691 20.7889C41.4691 21.8789 41.5966 22.2643 42.2013 22.6811C43.1241 23.2907 44.3018 23.7397 45.893 23.7397C49.2029 23.7397 51.4939 21.8795 51.4939 19.1522C51.4939 17.6761 50.603 16.5533 49.3935 15.6554Z" fill="white"/>
<path fill-rule="evenodd" clip-rule="evenodd" d="M73.294 9.52697C72.7841 9.52697 72.1794 9.55909 71.7658 9.46273C71.4472 9.46273 71.2567 9.55909 71.0973 9.55909C70.938 9.71968 71.0018 10.5534 71.0973 10.7461C71.3835 10.8746 71.7652 10.8425 72.052 10.8746C72.7523 11.003 73.134 11.26 73.134 11.6769C73.134 12.0616 72.9747 12.4791 72.6567 13.3771C72.275 14.6283 71.4797 17.1944 70.7157 18.991C70.6519 19.183 70.5881 19.4721 70.3977 19.4721C70.2702 19.4721 70.1746 19.2152 70.1109 18.9589C69.3787 17.0981 68.3285 13.9539 67.9786 13.0559C67.7555 12.4463 67.6288 11.9331 67.6288 11.5484C67.6288 10.9388 68.2966 10.8425 69.1243 10.6819C69.22 10.1044 69.1243 9.71968 68.997 9.46273C67.7562 9.49485 67.1515 9.55909 65.3053 9.55909C63.5873 9.55909 62.6957 9.55909 62.1547 9.62332C62.0591 10.0402 62.0909 10.4249 62.0909 10.7461C62.1228 10.8425 62.2821 10.8746 62.4089 10.8746C62.8225 11.0673 62.95 11.0994 63.3636 11.6769C63.3636 11.6769 64.1594 13.345 64.1594 13.8903C64.1594 14.1472 64.0639 14.3714 64.0639 14.6283C63.491 16.4249 63.1412 17.4192 62.3771 19.2801C62.314 19.4079 62.2184 19.6648 62.1228 19.6648C61.9634 19.6648 61.9323 19.5049 61.8686 19.2801C61.6143 18.7354 59.8319 14.6611 59.1953 12.8645C58.941 12.2878 58.8454 12.0308 58.8454 11.5497C58.8454 11.0037 59.3546 10.7474 60.2143 10.6832C60.278 10.2342 60.3099 10.0094 60.1824 9.46407C59.3234 9.39984 58.0501 9.52831 56.6182 9.52831C55.9172 9.59254 54.9632 9.56043 54.1991 9.49619C53.1808 9.49619 53.0533 9.72101 53.0533 10.2021C53.0533 10.4912 53.0533 10.7474 53.0852 10.9402C53.8168 11.1322 54.231 11.5169 54.6446 12.3513C55.7585 14.9174 58.0501 20.1787 59.7051 23.7391C59.9911 23.8354 60.278 23.8997 60.6597 23.8997C61.6143 23.8997 62.1234 23.45 62.5051 22.4878C63.396 20.1466 63.8103 19.1523 64.7649 16.5534C64.7968 16.4256 64.9235 16.1687 65.0192 16.1687C65.1466 16.1687 65.1466 16.3292 65.2103 16.4577C65.9744 18.447 67.0884 21.4299 68.0429 23.8682C69.1243 23.8682 69.5068 23.9003 69.9522 23.5792C70.1753 23.4192 70.4939 23.0338 70.6526 22.6491C71.9896 19.3128 73.5807 15.3028 74.7903 12.2878C75.1721 11.3577 75.6819 10.9402 76.4127 10.6819C76.4764 10.2965 76.4764 9.78324 76.2853 9.3985C75.2351 9.3985 73.9625 9.52697 73.294 9.52697Z" fill="white"/>
<path fill-rule="evenodd" clip-rule="evenodd" d="M82.3648 11.6781C82.9058 11.0685 83.8286 10.5232 84.5927 10.5232C85.5791 10.5232 86.3751 11.2934 86.3751 12.3519C86.3751 13.3783 85.8334 13.9879 84.1791 14.0521C83.1601 14.1806 82.5241 14.1806 81.6963 14.1806C81.2827 14.1806 81.1553 14.0521 81.1553 13.8594C81.1553 13.4105 81.6644 12.4483 82.3648 11.6781ZM90.0025 15.2706C89.9387 11.5497 87.5196 9.04715 83.8917 9.04715C79.8502 9.04715 77.145 12.3513 77.145 16.4577C77.145 20.564 79.7546 23.7397 83.6056 23.7397C86.247 23.7397 88.5705 22.1358 89.6526 19.4413L88.7298 18.8638C87.8071 20.1151 87.0118 20.4998 85.6429 20.4998C82.8422 20.4998 80.8692 18.5433 80.8692 16.0087C80.8692 15.7838 80.9011 15.5918 80.9011 15.367L90.0025 15.2706Z" fill="white"/>
<path fill-rule="evenodd" clip-rule="evenodd" d="M100.983 9.17636C99.7098 9.17636 99.0101 9.88228 97.8644 11.7431C97.7369 11.8709 97.6101 12.0636 97.4827 12.0636C97.2596 12.0636 97.2283 11.9673 97.2283 11.3256C97.2283 10.0108 96.7822 9.17636 95.732 9.17636C95.2229 9.17636 94.9686 9.30483 94.2045 9.68958C93.1855 10.2028 92.7089 10.5875 91.9449 10.8445V11.711C92.6133 12.4484 93.4086 13.3149 93.5042 13.8281C93.7584 15.2071 93.5679 17.0037 93.5679 20.6605C93.5679 21.719 93.1225 21.9117 92.8038 22.0402C92.454 22.168 92.0397 22.3286 91.8173 22.3928C91.7536 22.4885 91.7536 22.6491 91.8173 22.7454C91.8173 23.0024 91.8811 23.1951 92.0079 23.5798C93.2174 23.4514 93.6947 23.3871 94.9042 23.3871C96.4317 23.3871 97.4819 23.5156 98.1186 23.5156C98.6596 23.5156 99.1369 23.4199 99.8054 23.163C99.8054 22.8425 99.901 22.6498 99.7417 22.1044L97.6413 21.816C97.6094 21.3671 97.5138 20.9174 97.5138 20.5648C97.3863 19.3135 97.4819 17.0037 97.4819 15.3998C97.4819 13.8281 97.7362 13.09 98.9458 13.09C99.901 13.09 101.078 13.6033 101.938 13.6033C102.415 13.6033 102.669 13.3784 102.67 11.4219C102.67 10.3955 102.606 9.88228 102.479 9.49754C102.161 9.2406 101.747 9.17636 100.983 9.17636Z" fill="white"/>
<path fill-rule="evenodd" clip-rule="evenodd" d="M112.153 15.6554C111.389 15.1422 110.498 14.5647 109.32 13.9873C108.335 13.4734 107.602 12.8645 107.602 12.0622C107.602 11.1 108.589 10.4262 109.766 10.4262C111.294 10.4262 112.121 11.1 112.376 12.7681C112.408 12.9287 113.586 12.9929 113.776 12.8324C113.776 12.4476 113.872 12.1271 113.872 11.4854C113.872 10.7153 113.554 10.2021 112.726 9.75307C111.803 9.30409 110.721 9.04715 109.416 9.04715C106.361 9.04715 104.324 10.6189 104.324 13.1535C104.324 14.5326 105.056 15.5911 106.106 16.3292C106.87 16.9709 107.666 17.452 108.557 17.8688C109.862 18.639 110.849 19.2807 110.849 20.275C110.849 21.462 109.703 22.2 108.461 22.2C106.902 22.2 105.724 21.2378 105.597 19.5376C104.865 19.3449 104.61 19.5055 104.292 19.5055C104.229 20.0187 104.229 20.3399 104.229 20.7889C104.229 21.8789 104.356 22.2643 104.961 22.6811C105.884 23.2907 107.061 23.7397 108.653 23.7397C111.962 23.7397 114.254 21.8795 114.253 19.1522C114.253 17.6761 113.363 16.5533 112.153 15.6554Z" fill="white"/>
<path fill-rule="evenodd" clip-rule="evenodd" d="M117.121 5.75775C117.05 5.75775 117.032 5.77582 116.996 5.80258C116.92 5.86615 116.84 5.87485 116.546 5.87485C115.952 5.87485 115.323 5.88422 114.747 5.86615C114.676 5.86615 114.6 5.86615 114.547 5.84808C114.524 5.79388 114.502 5.74905 114.466 5.74905C114.373 5.74905 114.283 5.77649 114.283 5.86615C114.274 5.9518 114.265 6.37936 114.256 6.61289C114.332 6.63965 114.395 6.63965 114.448 6.62627C114.466 6.38338 114.546 6.26227 114.676 6.19469C114.778 6.14049 114.934 6.11841 115.327 6.11841C115.385 6.11841 115.407 6.14986 115.416 6.21744C115.42 6.31647 115.424 6.47839 115.429 6.7079C115.434 7.03176 115.443 7.94042 115.434 8.45297C115.434 8.67779 115.411 8.69586 115.268 8.71392C115.193 8.72262 115.081 8.74069 115.032 8.74069C115.027 8.83503 115.023 8.87518 115.045 8.94745C115.278 8.92938 115.491 8.92068 115.724 8.92068C115.973 8.92068 116.232 8.93875 116.321 8.93875C116.411 8.93875 116.482 8.92068 116.518 8.88455V8.71794C116.402 8.70924 116.201 8.67779 116.152 8.61021C116.098 8.53393 116.08 8.36732 116.08 8.16926C116.08 7.53962 116.076 6.92336 116.076 6.31178C116.076 6.11841 116.076 6.11841 116.268 6.11841C116.459 6.11841 116.749 6.14049 116.884 6.26227C116.968 6.34323 116.999 6.44159 117.017 6.57675C117.071 6.59482 117.102 6.59482 117.204 6.57675V6.19C117.204 6.00131 117.222 5.92503 117.224 5.83403C117.224 5.75307 117.192 5.75775 117.121 5.75775Z" fill="white"/>
<mask id="mask1" mask-type="alpha" maskUnits="userSpaceOnUse" x="117" y="5" width="5" height="4">
<path fill-rule="evenodd" clip-rule="evenodd" d="M117.421 5.83005H121.461V8.94966H117.421V5.83005Z" fill="white"/>
</mask>
<g mask="url(#mask1)">
<path fill-rule="evenodd" clip-rule="evenodd" d="M121.452 8.72667C121.398 8.71797 121.305 8.71329 121.256 8.69522C121.095 8.65909 121.046 8.56876 121.041 8.362C121.028 7.8354 121.019 7.18368 121.019 6.79224C121.019 6.62563 121.023 6.5179 121.033 6.38742C121.041 6.18067 121.068 6.12245 121.175 6.10439C121.246 6.08632 121.349 6.06424 121.438 6.04617C121.438 5.97391 121.438 5.89294 121.43 5.83005C121.153 5.84811 120.863 5.86618 120.533 5.86618C120.407 5.86618 120.394 5.90231 120.354 6.00134C120.122 6.52326 119.711 7.5082 119.515 7.97592C119.493 8.02543 119.484 8.0435 119.462 8.0435C119.439 8.0435 119.417 8.01673 119.408 7.96722C119.247 7.6166 119.136 7.37839 118.797 6.57745C118.752 6.47374 118.649 6.25762 118.587 6.02409C118.551 5.91101 118.52 5.87086 118.382 5.87086C118.132 5.87086 117.766 5.87086 117.436 5.84343C117.418 5.90633 117.418 6.00134 117.427 6.04617C117.52 6.07361 117.569 6.07829 117.672 6.11844C117.798 6.17264 117.851 6.24892 117.851 6.50987C117.851 7.04517 117.846 7.47274 117.846 8.19673C117.829 8.58816 117.792 8.67849 117.61 8.71864C117.557 8.73604 117.512 8.73604 117.454 8.74072C117.445 8.80362 117.463 8.89395 117.476 8.94748C117.601 8.92941 117.784 8.92071 117.927 8.92071C118.097 8.92071 118.209 8.9341 118.315 8.9341C118.401 8.9341 118.459 8.9341 118.534 8.89796L118.53 8.71797C118.494 8.71797 118.422 8.72265 118.383 8.70927C118.151 8.66377 118.092 8.56073 118.084 8.16461C118.084 7.71496 118.079 7.30546 118.079 7.0358C118.079 6.7976 118.061 6.63567 118.115 6.63567C118.115 6.63567 118.142 6.65373 118.155 6.67582C118.503 7.454 118.758 7.95317 119.146 8.93811C119.235 8.94748 119.266 8.95618 119.329 8.94279C119.681 8.09703 119.994 7.41319 120.337 6.63968C120.337 6.62229 120.359 6.60422 120.377 6.59954C120.395 6.59954 120.409 6.62229 120.409 6.65373C120.409 7.2158 120.418 7.98528 120.418 8.29107C120.409 8.65106 120.409 8.69121 120.203 8.71864C120.15 8.72734 120.043 8.74072 119.99 8.74072C119.972 8.83105 119.986 8.8712 119.994 8.94346C120.173 8.9254 120.392 8.92071 120.597 8.92071C120.762 8.92071 120.995 8.92941 121.151 8.92941C121.276 8.92941 121.378 8.92941 121.457 8.90198C121.457 8.83038 121.47 8.78087 121.452 8.72667Z" fill="white"/>
</g>
</svg>
