<?xml version="1.0" encoding="UTF-8"?>
<svg xmlns="http://www.w3.org/2000/svg" xmlns:xlink="http://www.w3.org/1999/xlink" width="80pt" height="80pt" viewBox="0 0 80 80" version="1.1">
<g id="surface1">
<path style=" stroke:none;fill-rule:nonzero;fill:rgb(22.745098%,47.058824%,98.823529%);fill-opacity:1;" d="M 80 40 C 80 62.089844 62.089844 80 40 80 C 17.910156 80 0 62.089844 0 40 C 0 17.910156 17.910156 0 40 0 C 62.089844 0 80 17.910156 80 40 Z M 80 40 "/>
<path style=" stroke:none;fill-rule:evenodd;fill:rgb(100%,100%,100%);fill-opacity:1;" d="M 36.3125 39.605469 C 35.292969 36.140625 34.214844 32.839844 33.144531 28.8125 C 32.925781 28.417969 32.988281 27.863281 32.597656 27.859375 C 32.378906 27.855469 32.09375 28.300781 31.980469 28.6875 C 30.550781 32.691406 28.5 38.023438 27.871094 39.800781 C 27.703125 40.246094 27.644531 40.523438 27.753906 40.691406 C 27.917969 40.859375 28.140625 40.808594 28.472656 40.808594 C 30.914062 40.835938 34.1875 40.925781 35.632812 40.882812 C 35.964844 40.886719 36.242188 40.832031 36.355469 40.722656 C 36.46875 40.5 36.417969 40.054688 36.3125 39.605469 Z M 51.714844 58.558594 C 50.214844 58.542969 48 58.183594 44.558594 58.148438 C 42.5625 58.128906 38.398438 58.140625 36.398438 58.34375 L 36.199219 55.945312 C 36.535156 55.949219 36.921875 55.898438 37.3125 55.789062 C 39.203125 55.53125 40.316406 55.09375 40.332031 53.757812 C 40.34375 52.304688 38.890625 47.773438 37.871094 44.363281 C 37.707031 44.082031 37.4375 43.578125 37.4375 43.578125 C 37.160156 43.40625 36.660156 43.347656 35.941406 43.339844 C 34.109375 43.320312 31.054688 43.570312 28.445312 43.542969 C 26.726562 43.523438 26.386719 43.910156 26.15625 44.746094 C 24.789062 48.46875 23.699219 51.859375 23.683594 53.195312 C 23.671875 54.480469 24.109375 55.097656 26.328125 55.453125 C 26.878906 55.570312 27.546875 55.632812 28.265625 55.695312 L 28.1875 57.984375 C 27.296875 58.195312 26.910156 58.25 26.1875 58.242188 C 24.6875 58.226562 23.414062 57.933594 21.640625 57.914062 C 20.253906 57.902344 17.421875 58.097656 15.253906 58.296875 L 15 55.953125 C 17.835938 55.257812 19.019531 53.761719 20.605469 50.320312 C 24.804688 41.386719 29.671875 26.378906 30.925781 23.15625 C 31.554688 21.546875 31.785156 20.601562 32.957031 19.777344 C 34.242188 18.953125 35.304688 18.296875 37.035156 17.53125 L 38.6875 18.554688 C 38.933594 21.453125 39.667969 25.757812 40.421875 28.160156 C 41.496094 31.851562 44.671875 41.421875 47.105469 47.691406 C 49.648438 54.242188 50.140625 55.027344 52.078125 55.605469 C 52.410156 55.71875 52.90625 55.890625 53.460938 55.898438 L 53.4375 58.238281 C 52.769531 58.457031 52.378906 58.5625 51.714844 58.558594 Z M 55.257812 16.804688 C 56.183594 17.632812 56.285156 19.074219 55.488281 20.027344 L 49.65625 26.996094 C 48.855469 27.953125 47.460938 28.058594 46.535156 27.234375 C 45.609375 26.40625 45.507812 24.964844 46.308594 24.011719 L 52.136719 17.042969 C 52.9375 16.085938 54.335938 15.980469 55.257812 16.804688 Z M 64.875 29.34375 C 65.277344 30.546875 64.667969 31.867188 63.519531 32.289062 L 55.113281 35.351562 C 53.960938 35.769531 52.703125 35.132812 52.300781 33.925781 C 51.902344 32.722656 52.511719 31.402344 53.664062 30.980469 L 62.066406 27.917969 C 63.21875 27.5 64.476562 28.132812 64.875 29.34375 Z M 64.90625 47.785156 C 64.542969 49.101562 63.21875 49.863281 61.941406 49.488281 L 52.640625 46.75 C 51.367188 46.375 50.625 45.003906 50.988281 43.691406 C 51.351562 42.375 52.679688 41.613281 53.957031 41.984375 L 63.257812 44.722656 C 64.53125 45.097656 65.269531 46.46875 64.90625 47.785156 Z M 64.90625 47.785156 "/>
</g>
</svg>
